<?xml version="1.0" encoding="utf-8"?>
<!-- Generator: Adobe Illustrator 21.1.0, SVG Export Plug-In . SVG Version: 6.00 Build 0)  -->
<svg version="1.1" id="Layer_1" xmlns="http://www.w3.org/2000/svg" xmlns:xlink="http://www.w3.org/1999/xlink" x="0px" y="0px"
	 viewBox="0 0 102.0252686 223.967041" style="enable-background:new 0 0 102.0252686 223.967041;" xml:space="preserve">
<style type="text/css">
	.st0{fill:#FFFFFF;}
	.st1{fill:#46A237;}
	.st2{clip-path:url(#SVGID_2_);}
</style>
<g>
	<g>
		<path class="st0" d="M1.6807531,200.0913696l49.3318672,21.7941132l49.3318634-21.7941132V1.6807534H1.6807531V200.0913696z"/>
		<path class="st0" d="M51.012619,223.9670715l-51.0126343-23.61203V-0.0000153h102.0252686v200.3550568L51.012619,223.9670715z
			 M3.9249179,197.8471985l47.0876999,21.7941132l47.0876999-21.7941132V3.9249179H3.9249179V197.8471985z"/>
		<g>
			<rect x="3.9254036" y="3.9249179" class="st1" width="94.1748505" height="94.1748505"/>
			<g>
				<defs>
					<rect id="SVGID_1_" x="3.9254036" y="3.9249179" width="94.1748505" height="94.1748505"/>
				</defs>
				<clipPath id="SVGID_2_">
					<use xlink:href="#SVGID_1_"  style="overflow:visible;"/>
				</clipPath>
				<g class="st2">
					
						<rect x="-0.7363366" y="0.7068763" transform="matrix(0.7071068 -0.7071068 0.7071068 0.7071068 -20.0828857 19.6517506)" class="st0" width="28.8333111" height="66.722374"/>
					
						<rect x="64.4940262" y="-10.3674612" transform="matrix(0.7071068 0.7071068 -0.7071068 0.7071068 53.8734703 -43.0566292)" class="st0" width="28.8333111" height="107.7403564"/>
					
						<rect x="64.4940262" y="-58.2408676" transform="matrix(0.7071068 0.7071068 -0.7071068 0.7071068 20.0218601 -57.0784225)" class="st0" width="28.8333111" height="107.7403564"/>
				</g>
			</g>
		</g>
		<polygon class="st1" points="3.9249179,155.5835114 3.9249179,197.8471985 51.012619,219.6413116 98.1003189,197.8471985 
			98.1003189,155.5835114 		"/>
		<g>
			<path class="st0" d="M20.0614014,179.7843628v-10.4663086h3.7578125c0.5517578,0,1.0390625,0.1376953,1.4619141,0.4135742
				c0.421875,0.2763672,0.7421875,0.644043,0.9619141,1.1040039s0.3291016,0.9731445,0.3291016,1.5395508
				c0,0.5756836-0.1123047,1.1015625-0.3359375,1.578125c-0.2246094,0.4765625-0.5498047,0.8574219-0.9765625,1.1425781
				c-0.4277344,0.2856445-0.9169922,0.4282227-1.46875,0.4282227h-1.7412109v4.2602539H20.0614014z M22.0496826,173.9743042
				h0.9980469c0.4951172,0,0.8681641-0.1342773,1.1181641-0.4033203s0.375-0.6557617,0.375-1.1606445
				c0-0.5-0.125-0.8823242-0.375-1.1464844s-0.6230469-0.3959961-1.1181641-0.3959961h-0.9980469V173.9743042z"/>
			<path class="st0" d="M26.3514404,179.7843628l2.6748047-10.4663086h2.6621094l2.3203125,10.4663086h-2.1513672
				l-0.4873047-2.7246094h-2.2451172l-0.6220703,2.7246094H26.3514404z M29.3719482,175.5099487h1.7509766l-0.7978516-4.8686523
				L29.3719482,175.5099487z"/>
			<path class="st0" d="M35.0985107,179.7843628v-10.4663086h5.5556641v1.4931641H37.086792v2.5405273h1.6660156
				c0.5195312,0,0.9873047,0.1557617,1.4033203,0.4667969c0.4160156,0.3115234,0.7314453,0.7006836,0.9462891,1.1679688
				c0.2148438,0.4667969,0.3232422,0.9506836,0.3232422,1.4506836c0,1.019043-0.2207031,1.831543-0.6630859,2.4379883
				c-0.4414062,0.605957-1.0517578,0.9091797-1.8310547,0.9091797H35.0985107z M37.086792,178.2911987h1.1464844
				c0.3828125,0,0.671875-0.1274414,0.8671875-0.3823242c0.1962891-0.2543945,0.2939453-0.6674805,0.2939453-1.2382812
				c0-0.5239258-0.1025391-0.9423828-0.3076172-1.2563477c-0.2060547-0.3134766-0.4902344-0.4702148-0.8535156-0.4702148H37.086792
				V178.2911987z"/>
			<path class="st0" d="M42.5750732,176.5079956v-3.793457c0-0.6416016,0.0820312-1.1967773,0.2470703-1.6665039
				c0.1650391-0.4692383,0.4023438-0.8422852,0.7119141-1.1181641c0.3085938-0.2758789,0.6650391-0.4775391,1.0683594-0.6049805
				s0.8623047-0.190918,1.3759766-0.190918c0.5244141,0,0.9853516,0.0625,1.3837891,0.1875s0.75,0.3242188,1.0546875,0.5976562
				c0.3037109,0.2739258,0.5351562,0.6455078,0.6933594,1.1147461c0.1582031,0.4697266,0.2373047,1.0297852,0.2373047,1.6806641
				v3.793457c0,0.6508789-0.0791016,1.2089844-0.2373047,1.6733398c-0.1582031,0.4648438-0.390625,0.8291016-0.6972656,1.0932617
				c-0.3066406,0.2646484-0.6582031,0.456543-1.0546875,0.5771484c-0.3955078,0.1201172-0.8554688,0.1801758-1.3798828,0.1801758
				C43.7098389,180.0319214,42.5750732,178.8571167,42.5750732,176.5079956z M44.6053467,176.7555542
				c0,1.1230469,0.4580078,1.684082,1.3730469,1.684082c0.4296875,0,0.7597656-0.1435547,0.9912109-0.4316406
				c0.2304688-0.2875977,0.3466797-0.7050781,0.3466797-1.2524414v-4.2460938c0-0.5615234-0.1171875-0.9990234-0.3505859-1.3129883
				c-0.2333984-0.3134766-0.5625-0.4702148-0.9873047-0.4702148c-0.9150391,0-1.3730469,0.5849609-1.3730469,1.7548828V176.7555542z
				"/>
			<path class="st0" d="M50.2537842,170.9103394v-1.5922852h6.9140625v1.5922852h-2.4628906v8.8740234h-1.9882812v-8.8740234
				H50.2537842z"/>
			<path class="st0" d="M57.0994873,179.7843628l2.6748047-10.4663086h2.6621094l2.3203125,10.4663086h-2.1513672
				l-0.4873047-2.7246094h-2.2451172l-0.6220703,2.7246094H57.0994873z M60.1199951,175.5099487h1.7509766l-0.7978516-4.8686523
				L60.1199951,175.5099487z"/>
			<path class="st0" d="M65.7020264,179.7843628v-10.4663086h5.5976562v1.5922852h-3.609375v2.4414062h3.2910156v1.5922852
				h-3.2910156v3.2480469h3.609375v1.5922852H65.7020264z"/>
			<path class="st0" d="M72.6824951,179.7843628v-10.4663086h3.1708984l1.3974609,6.8173828l1.390625-6.8173828h3.1699219
				v10.4663086h-1.8535156v-9.4755859l-0.0576172-0.0092773l-1.9775391,9.4848633H76.539917l-1.9833984-9.4614258h-0.0195312
				v9.4614258H72.6824951z"/>
			<path class="st0" d="M26.6014404,192.2745972v-3.8779297c0-0.6650391,0.2412109-1.2041016,0.7246094-1.6171875
				c0.484375-0.4125977,1.1123047-0.6191406,1.8867188-0.6191406c0.296875,0,0.5898438,0.0439453,0.8769531,0.1308594
				c0.2880859,0.0874023,0.5517578,0.2138672,0.7929688,0.3789062c0.2402344,0.1650391,0.4355469,0.3842773,0.5839844,0.6582031
				c0.1484375,0.2734375,0.2226562,0.5800781,0.2226562,0.9199219v0.9833984h-1.7832031v-0.8984375
				c0-0.2314453-0.0664062-0.4072266-0.1982422-0.5273438s-0.296875-0.1806641-0.4951172-0.1806641
				c-0.2265625,0-0.4091797,0.0688477-0.5488281,0.2055664c-0.1386719,0.1367188-0.2089844,0.3393555-0.2089844,0.6083984v3.7929688
				c0,0.269043,0.0703125,0.472168,0.2089844,0.6088867c0.1396484,0.1367188,0.3222656,0.2050781,0.5488281,0.2050781
				c0.1982422,0,0.3632812-0.0600586,0.4951172-0.1801758c0.1318359-0.1206055,0.1982422-0.2963867,0.1982422-0.5273438v-1.1181641
				h1.7832031v1.203125c0,0.3393555-0.0742188,0.6464844-0.2226562,0.9199219s-0.34375,0.4931641-0.5839844,0.6582031
				c-0.2412109,0.1650391-0.5048828,0.2910156-0.7929688,0.378418c-0.2871094,0.0874023-0.5800781,0.1308594-0.8769531,0.1308594
				c-0.7744141,0-1.4023438-0.206543-1.8867188-0.6191406C26.8426514,193.479187,26.6014404,192.9401245,26.6014404,192.2745972z"/>
			<path class="st0" d="M36.6317139,194.2775269v-0.5380859c0-0.4580078,0.0556641-0.8969727,0.1689453-1.3173828
				c0.1132812-0.4199219,0.25-0.7788086,0.4111328-1.0761719c0.1601562-0.2973633,0.3632812-0.597168,0.6083984-0.8994141
				s0.4609375-0.5395508,0.6474609-0.7119141s0.4042969-0.3691406,0.6542969-0.5913086
				c0.25-0.2216797,0.4199219-0.3774414,0.5107422-0.4672852c0.4443359-0.4438477,0.734375-0.7944336,0.8691406-1.0517578
				c0.1347656-0.2578125,0.203125-0.5634766,0.203125-0.9174805c0-0.8691406-0.3486328-1.3032227-1.0439453-1.3032227
				c-0.3457031,0-0.6064453,0.1191406-0.78125,0.3583984c-0.1757812,0.2392578-0.2626953,0.6474609-0.2626953,1.2246094v0.5678711
				h-1.8544922v-0.6083984c0-0.5141602,0.0839844-0.9755859,0.2509766-1.3833008
				c0.1669922-0.4082031,0.390625-0.7373047,0.671875-0.9873047c0.2802734-0.25,0.5888672-0.4399414,0.9257812-0.5698242
				s0.6865234-0.1943359,1.0498047-0.1943359c0.8242188,0,1.5136719,0.2504883,2.0673828,0.7519531
				c0.5537109,0.5009766,0.8300781,1.1616211,0.8300781,1.9804688c0,0.5478516-0.1191406,1.0849609-0.3564453,1.6118164
				c-0.2382812,0.5263672-0.578125,1.0043945-1.0205078,1.434082c-0.1416016,0.1323242-0.3535156,0.324707-0.6357422,0.5776367
				c-0.2822266,0.2524414-0.5019531,0.4545898-0.6582031,0.6054688c-0.15625,0.1513672-0.3291016,0.3364258-0.5175781,0.5561523
				c-0.1894531,0.2197266-0.3339844,0.4404297-0.4335938,0.6621094c-0.0996094,0.222168-0.1630859,0.4536133-0.1914062,0.6943359
				h3.5810547v1.5922852H36.6317139z"/>
			<path class="st0" d="M43.7235107,191.7438354v-5.2084961c0-0.8066406,0.2773438-1.4624023,0.8310547-1.9672852
				c0.5546875-0.5043945,1.2421875-0.7568359,2.0634766-0.7568359c0.8720703,0,1.5673828,0.2441406,2.0839844,0.7324219
				s0.7744141,1.1523438,0.7744141,1.9916992v5.2084961c0,0.8447266-0.2587891,1.5195312-0.7783203,2.0239258
				c-0.5185547,0.5048828-1.2119141,0.7573242-2.0800781,0.7573242c-0.8164062,0-1.5029297-0.2602539-2.0595703-0.7817383
				S43.7235107,192.5553589,43.7235107,191.7438354z M45.5770264,191.9127808c0,0.3022461,0.1015625,0.5478516,0.3046875,0.7368164
				s0.4482422,0.2832031,0.7363281,0.2832031c0.2685547,0,0.5029297-0.1025391,0.7041016-0.3081055
				c0.2001953-0.2050781,0.3007812-0.4614258,0.3007812-0.7685547v-5.5107422c0-0.2973633-0.0986328-0.5288086-0.2939453-0.6943359
				c-0.1962891-0.1650391-0.4326172-0.2475586-0.7109375-0.2475586c-0.2880859,0-0.5332031,0.0859375-0.7363281,0.2583008
				s-0.3046875,0.4047852-0.3046875,0.6977539V191.9127808z"/>
			<path class="st0" d="M51.2137451,191.7438354v-5.2084961c0-0.8066406,0.2773438-1.4624023,0.8310547-1.9672852
				c0.5546875-0.5043945,1.2421875-0.7568359,2.0634766-0.7568359c0.8720703,0,1.5673828,0.2441406,2.0839844,0.7324219
				s0.7744141,1.1523438,0.7744141,1.9916992v5.2084961c0,0.8447266-0.2587891,1.5195312-0.7783203,2.0239258
				c-0.5185547,0.5048828-1.2119141,0.7573242-2.0800781,0.7573242c-0.8164062,0-1.5029297-0.2602539-2.0595703-0.7817383
				S51.2137451,192.5553589,51.2137451,191.7438354z M53.0672607,191.9127808c0,0.3022461,0.1015625,0.5478516,0.3046875,0.7368164
				s0.4482422,0.2832031,0.7363281,0.2832031c0.2685547,0,0.5029297-0.1025391,0.7041016-0.3081055
				c0.2001953-0.2050781,0.3007812-0.4614258,0.3007812-0.7685547v-5.5107422c0-0.2973633-0.0986328-0.5288086-0.2939453-0.6943359
				c-0.1962891-0.1650391-0.4326172-0.2475586-0.7109375-0.2475586c-0.2880859,0-0.5332031,0.0859375-0.7363281,0.2583008
				s-0.3046875,0.4047852-0.3046875,0.6977539V191.9127808z"/>
			<path class="st0" d="M58.2801514,187.2077026v-1.4082031h0.2480469c0.7353516,0,1.3251953-0.1674805,1.7685547-0.5024414
				s0.7294922-0.7666016,0.8564453-1.2949219h1.3447266v10.2753906h-1.8544922v-7.0698242H58.2801514z"/>
			<path class="st0" d="M68.5311279,194.2775269v-7.9116211h4.6425781v1.4082031h-2.859375v6.503418H68.5311279z"/>
			<path class="st0" d="M73.8494873,194.2775269v-1.7832031h1.7832031v1.7832031H73.8494873z"/>
		</g>
	</g>
	<g>
		<path d="M15.8333769,118.9343109v-6.7971039c0-2.1730499,0.4864302-3.7858658,1.4592924-4.8389893
			c0.9728622-1.0525894,2.427845-1.579422,4.3649502-1.579422c1.7981243,0,3.1809235,0.4799652,4.1473217,1.4404373
			c0.9663963,0.9604721,1.4501343,2.3077164,1.4501343,4.0428162v0.9351578h-3.5504608v-0.4169388
			c0-1.1624832-0.1599884-1.979126-0.4799652-2.4510117c-0.3205166-0.4718857-0.8592014-0.7078323-1.6176662-0.7078323
			c-0.7665462,0-1.3160038,0.2380981-1.6483707,0.7142944c-0.3329067,0.4756622-0.4993591,1.2906876-0.4993591,2.4445496v7.3783417
			c0,1.1964111,0.1621437,2.0346069,0.4864311,2.5145721s0.8699722,0.7202148,1.6365185,0.7202148
			c0.7326088,0,1.2696762-0.2467117,1.6106625-0.7390671c0.3409882-0.492897,0.5117493-1.3246231,0.5117493-2.4957199v-1.0105743
			h3.5504608v0.7961731c0,4.194191-1.8826981,6.2918243-5.6480923,6.2918243c-0.9012165,0-1.6946964-0.1136627-2.3815193-0.3409882
			c-0.6862812-0.2278595-1.2422028-0.5262909-1.6677628-0.8974457c-0.4250202-0.370079-0.7686996-0.8317261-1.0294228-1.3833389
			c-0.261261-0.5516129-0.4422588-1.1161499-0.5435314-1.6930847
			C15.8840132,120.2842484,15.8333769,119.6421356,15.8333769,118.9343109z"/>
		<path d="M28.3545284,108.8900223v-2.8426285H40.698452v2.8426285h-4.3967323v15.84375h-3.5504608v-15.84375H28.3545284z"/>
		<path d="M42.1830635,124.7337723v-18.6863785h6.7092972c0.9852524,0,1.8546867,0.2461777,2.6088448,0.7390747
			c0.7536163,0.4928894,1.3267746,1.1495438,1.718399,1.9710388c0.3916206,0.8214951,0.587162,1.7372513,0.587162,2.7478256
			c0,1.0278015-0.1998482,1.9667282-0.60009,2.8178482c-0.4002419,0.8505783-0.9809418,1.5309372-1.7431793,2.040535
			c-0.7627754,0.5095901-1.6365204,0.7638474-2.6217728,0.7638474h-3.1082001v7.6062088H42.1830635z M45.7335243,114.3608856
			h1.7814255c0.8845177,0,1.5497894-0.2402496,1.9963608-0.7202148c0.4460297-0.4799652,0.6695824-1.1705627,0.6695824-2.0717773
			c0-0.8931351-0.2235527-1.5751114-0.6695824-2.0469971c-0.4465714-0.4718857-1.1118431-0.7072906-1.9963608-0.7072906h-1.7814255
			V114.3608856z"/>
		<path d="M55.355484,118.8842087v-6.7723236c0-1.1452408,0.1470604-2.1369553,0.4422569-2.9751434
			c0.2946587-0.8381958,0.7180634-1.5034637,1.2696762-1.9963608s1.1877975-0.8527374,1.9074783-1.0805969
			c0.7202187-0.2273254,1.5395546-0.3409882,2.4574699-0.3409882c0.935154,0,1.7582626,0.1120453,2.4704018,0.3350601
			c0.7115974,0.2230148,1.3391685,0.5790863,1.8821602,1.0676727c0.5435333,0.4885864,0.9561615,1.1517029,1.2384338,1.9898911
			c0.2822647,0.8381958,0.4234009,1.8379898,0.4234009,3.0004654v6.7723236c0,1.1619415-0.1411362,2.1585083-0.4234009,2.9880753
			c-0.2822723,0.8295746-0.6970596,1.4803009-1.2443619,1.9516525c-0.5478363,0.4718857-1.1754074,0.8150253-1.8826942,1.0299606
			c-0.7078323,0.2149353-1.5287857,0.3221359-2.4639397,0.3221359
			C57.3809319,125.176033,55.355484,123.0783997,55.355484,118.8842087z M58.9813576,119.3264694
			c0,2.0044403,0.8171844,3.0069275,2.4510078,3.0069275c0.7665482,0,1.3564072-0.2569504,1.7690353-0.7708511
			c0.412632-0.5139084,0.6189499-1.2589035,0.6189499-2.2360764v-7.5808868c0-1.0024872-0.2084732-1.783577-0.625412-2.343811
			c-0.4169426-0.5602264-1.0041046-0.8403473-1.7625732-0.8403473c-1.6338234,0-2.4510078,1.0445099-2.4510078,3.133522V119.3264694
			z"/>
		<path d="M69.3671722,124.7337723v-18.6863785h3.3102036v7.0120392c0,3.0494843-0.1470566,5.2435379-0.4422607,6.5827026h0.025322
			l5.1805191-13.5947418h3.8278809v18.6863785h-3.3102112v-7.0879898c0-2.9562988,0.1475983-5.112648,0.4422607-6.4685135h-0.025322
			l-5.1799774,13.5565033H69.3671722z M71.4771881,100.9810791h1.8449936c0,0.6905899,0.164299,1.2174225,0.4939728,1.5794144
			c0.3296738,0.3619995,0.7859344,0.5429993,1.3693314,0.5429993s1.0418167-0.1809998,1.3752594-0.5429993
			c0.3339844-0.3619919,0.5009766-0.8888245,0.5009766-1.5794144h1.8320618c0,2.5856781-1.2529831,3.8785172-3.758934,3.8785172
			C72.696228,104.8595963,71.4771881,103.5667572,71.4771881,100.9810791z"/>
		<path d="M9.390727,147.9644775v-18.6863708h3.5504599v8.0985565l4.2954597-8.0985565h4.0056477l-4.7253284,8.0985565
			l4.8890877,10.5878143h-3.9668617l-3.0958128-7.4542847l-1.4021921,1.8444366v5.609848H9.390727z"/>
		<path d="M22.0885658,147.9644775l4.7738094-18.6863708h4.7528019l4.1435509,18.6863708h-3.8408108l-0.8699741-4.8643036
			h-4.0094185l-1.109148,4.8643036H22.0885658z M27.4797058,140.3334961h3.1270561l-1.4248161-8.6927338L27.4797058,140.3334961z"/>
		<path d="M37.1862373,147.9644775v-18.6863708h5.6610222l2.4946404,12.1720734l2.4827919-12.1720734h5.6599426v18.6863708
			H50.174427v-16.9173431l-0.1028862-0.0161591l-3.5305328,16.9335022h-2.4687843l-3.540226-16.8920135h-0.035553v16.8920135
			H37.1862373z"/>
		<path d="M55.5574875,147.9644775v-18.6863708h9.9941864v2.8426208h-6.4437256v4.359024h5.8748779v2.8426361h-5.8748779v5.799469
			h6.4437256v2.8426208H55.5574875z"/>
		<path d="M67.5038681,147.9644775v-18.6863708h3.5504608v7.2016449h4.6876144v-7.2016449h3.5499268v18.6863708h-3.5499268
			v-8.6420898h-4.6876144v8.6420898H67.5038681z"/>
		<path d="M81.3388672,147.9644775v-18.6863708h3.5504608v7.2016449h2.9740677c0.9276123,0,1.7631073,0.2779694,2.5054169,0.8338928
			c0.7423019,0.5559235,1.3057632,1.250824,1.6898422,2.0847015c0.3835449,0.8338776,0.5758591,1.6973877,0.5758591,2.5899811
			c0,1.8196716-0.3943176,3.2703552-1.1829529,4.3525696c-0.7886276,1.0822144-1.8783875,1.6235809-3.2698059,1.6235809H81.3388672z
			 M84.889328,145.2985382h2.0469894c0.6819763,0,1.1980362-0.2273254,1.5476379-0.6819763
			c0.3490677-0.4551849,0.5241394-1.1921082,0.5241394-2.2112885c0-0.9351501-0.1831512-1.682312-0.5494537-2.2425385
			c-0.3663101-0.5602264-0.8742828-0.8403473-1.5223236-0.8403473H84.889328V145.2985382z"/>
	</g>
</g>
</svg>
